<svg xmlns="http://www.w3.org/2000/svg" viewBox="0 0 51 50" width="51" height="50">
	<style>
		tspan { white-space:pre }
		.shp0 { fill: #2c0f83 } 
		.shp1 { fill: #ffffff } 
	</style>
	<g id="Burger Menu">
		<path id="Oval" class="shp0" d="M26 50C39.81 50 51 38.81 51 25C51 11.19 39.81 0 26 0C12.19 0 1 11.19 1 25C1 38.81 12.19 50 26 50Z" />
		<path id="Rectangle" class="shp1" d="M18.78 16.81L33.63 31.66C34.21 32.25 34.21 33.2 33.63 33.78L33.63 33.78C33.04 34.37 32.09 34.37 31.51 33.78L16.66 18.94C16.07 18.35 16.07 17.4 16.66 16.81L16.66 16.81C17.24 16.23 18.19 16.23 18.78 16.81Z" />
		<path id="Rectangle" class="shp1" d="M16.66 31.66L31.51 16.81C32.09 16.23 33.04 16.23 33.63 16.81L33.63 16.81C34.21 17.4 34.21 18.35 33.63 18.94L18.78 33.78C18.19 34.37 17.24 34.37 16.66 33.78L16.66 33.78C16.07 33.2 16.07 32.25 16.66 31.66Z" />
	</g>
</svg>